<svg xmlns="http://www.w3.org/2000/svg" viewBox="0 0 64 64" enable-background="new 0 0 64 64">
<g>
	<path d="M57,14h-3V0H10v14H7c-3.9,0-7,3.3-7,7.3v21.3c0,4,3.1,7.3,7,7.3h2v14h46V50h2c3.9,0,7-3.3,7-7.3V21.3
		C64,17.3,60.9,14,57,14z M14,4h36v10H14V4z M51,60H13V41h38V60z M60,42.7c0,1.8-1.3,3.3-3,3.3h-2v-9H9v9H7c-1.7,0-3-1.5-3-3.3V21.3
		C4,19.5,5.3,18,7,18h50c1.7,0,3,1.5,3,3.3V42.7z"/>
	<path d="M53,20c-2.8,0-5,2.2-5,5s2.2,5,5,5s5-2.2,5-5S55.8,20,53,20z M53,26c-0.6,0-1-0.4-1-1s0.4-1,1-1s1,0.4,1,1S53.6,26,53,26z"/>
	<rect x="17" y="45" width="30" height="4"/>
	<rect x="17" y="52" width="30" height="4"/>
</g>
</svg>
