<svg xmlns="http://www.w3.org/2000/svg" viewBox="0 0 512 512" enable-background="new 0 0 512 512">
<g>
	<polygon points="398.03,466.47 398.03,329.33 441.35,329.33 441.35,512 50.4,512 50.4,329.33 93.72,329.33 93.72,466.47 	"/>
	<path d="M141.51,316.33l212.62,46.7l9.02-44.94l-212.62-46.72L141.51,316.33z M169.66,209.88l196.87,96.36l18.01-41.36
		l-196.89-96.97L169.66,209.88z M224.23,108.18l167.04,146.03l27.57-34.86L251.77,73.27l-27.57,34.88L224.23,108.18z M332.2,0.03
		l-34.86,27.16l129.37,183.28l34.88-27.18L332.2,0V0.03z M137.04,420.39h217.14v-45.53H137.04V420.39z"/>
</g>
</svg>
